<svg xmlns="http://www.w3.org/2000/svg" viewBox="0 0 64 64" fill="none">
  <path d="M40 8C28 8 18 18 18 32C18 46 28 56 40 56C44 56 47.5 55 50.5 53C46 57 40 60 34 60C18.5 60 6 47.5 6 32C6 16.5 18.5 4 34 4C40 4 46 7 50.5 11C47.5 9 44 8 40 8Z" fill="#FFD93D"/>
  <path d="M40 14C31 14 24 21 24 32C24 43 31 50 40 50C43 50 45.5 49.3 47.8 48C44.2 51.5 39.5 54 34 54C21 54 12 44.5 12 32C12 19.5 21 10 34 10C39.5 10 44.2 12.5 47.8 16C45.5 14.7 43 14 40 14Z" fill="#FFF8F0" opacity="0.4"/>
  <circle cx="22" cy="22" r="1.5" fill="white" opacity="0.5"/>
  <circle cx="18" cy="32" r="1" fill="white" opacity="0.4"/>
</svg>
