<svg xmlns="http://www.w3.org/2000/svg" viewBox="0 0 64 64" fill="none">
  <path d="M32 4L36 26L58 32L36 38L32 60L28 38L6 32L28 26L32 4Z" fill="#FFD93D"/>
  <path d="M32 12L34.5 27L50 32L34.5 37L32 52L29.5 37L14 32L29.5 27L32 12Z" fill="#FFF8F0" opacity="0.5"/>
  <circle cx="18" cy="14" r="3" fill="#FFD93D" opacity="0.6"/>
  <path d="M18 9L19 13L23 14L19 15L18 19L17 15L13 14L17 13L18 9Z" fill="#FFD93D"/>
  <circle cx="50" cy="50" r="2.5" fill="#FFD93D" opacity="0.6"/>
  <path d="M50 46L51 49L54 50L51 51L50 54L49 51L46 50L49 49L50 46Z" fill="#FFD93D"/>
</svg>
