<svg xmlns="http://www.w3.org/2000/svg" width="800" height="800" viewBox="0 0 800 800">
  <defs>
    <pattern id="sakura" patternUnits="userSpaceOnUse" width="250" height="250">
      <rect width="250" height="250" fill="#FFF5F8"/>
      <g opacity="0.35">
        <path d="M60,80 Q65,60 60,40 Q55,60 60,80Z" fill="#FFB7C5" transform="rotate(0 60 60)"/>
        <path d="M60,80 Q65,60 60,40 Q55,60 60,80Z" fill="#FFB7C5" transform="rotate(72 60 60)"/>
        <path d="M60,80 Q65,60 60,40 Q55,60 60,80Z" fill="#FFB7C5" transform="rotate(144 60 60)"/>
        <path d="M60,80 Q65,60 60,40 Q55,60 60,80Z" fill="#FFB7C5" transform="rotate(216 60 60)"/>
        <path d="M60,80 Q65,60 60,40 Q55,60 60,80Z" fill="#FFB7C5" transform="rotate(288 60 60)"/>
        <circle cx="60" cy="60" r="5" fill="#FF8FAA"/>
      </g>
      <g opacity="0.25" transform="translate(150,160)">
        <path d="M30,48 Q33,32 30,16 Q27,32 30,48Z" fill="#FFB7C5" transform="rotate(0 30 30)"/>
        <path d="M30,48 Q33,32 30,16 Q27,32 30,48Z" fill="#FFB7C5" transform="rotate(72 30 30)"/>
        <path d="M30,48 Q33,32 30,16 Q27,32 30,48Z" fill="#FFB7C5" transform="rotate(144 30 30)"/>
        <path d="M30,48 Q33,32 30,16 Q27,32 30,48Z" fill="#FFB7C5" transform="rotate(216 30 30)"/>
        <path d="M30,48 Q33,32 30,16 Q27,32 30,48Z" fill="#FFB7C5" transform="rotate(288 30 30)"/>
        <circle cx="30" cy="30" r="3" fill="#FF8FAA"/>
      </g>
      <g opacity="0.15">
        <circle cx="180" cy="40" r="3" fill="#FFB7C5"/>
        <circle cx="30" cy="200" r="2" fill="#FFB7C5"/>
        <circle cx="220" cy="120" r="2.5" fill="#FFB7C5"/>
      </g>
    </pattern>
  </defs>
  <rect width="800" height="800" fill="url(#sakura)"/>
</svg>