<svg xmlns="http://www.w3.org/2000/svg" width="800" height="800" viewBox="0 0 800 800">
  <defs>
    <pattern id="confetti" patternUnits="userSpaceOnUse" width="200" height="200">
      <rect width="200" height="200" fill="#FFFEF8"/>
      <rect x="30" y="20" width="8" height="4" rx="1" fill="#F4C430" opacity="0.3" transform="rotate(25 34 22)"/>
      <rect x="80" y="50" width="7" height="3.5" rx="1" fill="#E88090" opacity="0.25" transform="rotate(-15 83 52)"/>
      <rect x="150" y="30" width="6" height="3" rx="1" fill="#87CEEB" opacity="0.25" transform="rotate(45 153 32)"/>
      <rect x="120" y="100" width="8" height="4" rx="1" fill="#90D890" opacity="0.25" transform="rotate(-30 124 102)"/>
      <rect x="40" y="130" width="7" height="3.5" rx="1" fill="#DDA0DD" opacity="0.25" transform="rotate(60 44 132)"/>
      <rect x="170" y="150" width="6" height="3" rx="1" fill="#F4C430" opacity="0.2" transform="rotate(-45 173 152)"/>
      <rect x="90" y="170" width="7" height="3.5" rx="1" fill="#E88090" opacity="0.2" transform="rotate(15 94 172)"/>
      <circle cx="60" cy="80" r="2.5" fill="#F4C430" opacity="0.2"/>
      <circle cx="140" cy="60" r="2" fill="#E88090" opacity="0.2"/>
      <circle cx="25" cy="180" r="2" fill="#87CEEB" opacity="0.15"/>
      <circle cx="180" cy="95" r="1.5" fill="#90D890" opacity="0.2"/>
    </pattern>
  </defs>
  <rect width="800" height="800" fill="url(#confetti)"/>
</svg>