<svg xmlns="http://www.w3.org/2000/svg" width="800" height="800" viewBox="0 0 800 800">
  <defs>
    <pattern id="roses" patternUnits="userSpaceOnUse" width="200" height="200">
      <rect width="200" height="200" fill="#FFF0F3"/>
      <g opacity="0.3">
        <circle cx="50" cy="50" r="18" fill="#E8A0B4"/>
        <circle cx="50" cy="50" r="12" fill="#D4708A"/>
        <circle cx="50" cy="50" r="6" fill="#C05070"/>
        <circle cx="44" cy="38" r="8" fill="#E8A0B4"/>
        <circle cx="56" cy="38" r="8" fill="#E8A0B4"/>
        <circle cx="62" cy="48" r="8" fill="#E8A0B4"/>
        <circle cx="38" cy="48" r="8" fill="#E8A0B4"/>
        <ellipse cx="50" cy="68" rx="3" ry="12" fill="#7BA87B" opacity="0.6"/>
        <ellipse cx="42" cy="62" rx="6" ry="3" fill="#7BA87B" opacity="0.5" transform="rotate(-30 42 62)"/>
      </g>
      <g opacity="0.2" transform="translate(120,130)">
        <circle cx="50" cy="50" r="14" fill="#E8A0B4"/>
        <circle cx="50" cy="50" r="9" fill="#D4708A"/>
        <circle cx="50" cy="50" r="4" fill="#C05070"/>
        <circle cx="45" cy="40" r="6" fill="#E8A0B4"/>
        <circle cx="55" cy="40" r="6" fill="#E8A0B4"/>
      </g>
      <g opacity="0.15">
        <circle cx="160" cy="30" r="4" fill="#E8A0B4"/>
        <circle cx="20" cy="160" r="5" fill="#D4708A"/>
      </g>
    </pattern>
  </defs>
  <rect width="800" height="800" fill="url(#roses)"/>
</svg>