<svg xmlns="http://www.w3.org/2000/svg" width="800" height="800" viewBox="0 0 800 800">
  <defs>
    <pattern id="wildflowers" patternUnits="userSpaceOnUse" width="300" height="300">
      <rect width="300" height="300" fill="#FEFDF5"/>
      <g opacity="0.3">
        <circle cx="40" cy="60" r="6" fill="#E88FA0"/>
        <circle cx="40" cy="60" r="3" fill="#FFD700"/>
        <line x1="40" y1="66" x2="40" y2="95" stroke="#6B8E6B" stroke-width="1.5"/>
        <ellipse cx="34" cy="80" rx="5" ry="2.5" fill="#6B8E6B" opacity="0.6" transform="rotate(-20 34 80)"/>
      </g>
      <g opacity="0.25">
        <circle cx="180" cy="40" r="5" fill="#87CEEB"/>
        <circle cx="180" cy="40" r="2.5" fill="#FFD700"/>
        <line x1="180" y1="45" x2="180" y2="70" stroke="#6B8E6B" stroke-width="1.5"/>
      </g>
      <g opacity="0.3">
        <circle cx="120" cy="180" r="7" fill="#DDA0DD"/>
        <circle cx="120" cy="180" r="3.5" fill="#FFD700"/>
        <line x1="120" y1="187" x2="120" y2="220" stroke="#6B8E6B" stroke-width="1.5"/>
        <ellipse cx="126" cy="205" rx="5" ry="2.5" fill="#6B8E6B" opacity="0.6" transform="rotate(20 126 205)"/>
      </g>
      <g opacity="0.2">
        <circle cx="260" cy="150" r="4" fill="#F0C060"/>
        <circle cx="260" cy="150" r="2" fill="#FFD700"/>
        <line x1="260" y1="154" x2="260" y2="175" stroke="#6B8E6B" stroke-width="1"/>
      </g>
      <g opacity="0.25">
        <circle cx="80" cy="260" r="5.5" fill="#FF9E80"/>
        <circle cx="80" cy="260" r="2.5" fill="#FFD700"/>
        <line x1="80" y1="265" x2="80" y2="290" stroke="#6B8E6B" stroke-width="1.5"/>
      </g>
      <g opacity="0.2">
        <circle cx="230" cy="270" r="4.5" fill="#87CEEB"/>
        <circle cx="230" cy="270" r="2" fill="#FFD700"/>
        <line x1="230" y1="274" x2="230" y2="295" stroke="#6B8E6B" stroke-width="1"/>
      </g>
    </pattern>
  </defs>
  <rect width="800" height="800" fill="url(#wildflowers)"/>
</svg>