<svg xmlns="http://www.w3.org/2000/svg" viewBox="0 0 200 40" width="200" height="40">
  <defs>
    <pattern id="yellow-pattern" x="0" y="0" width="10" height="10" patternUnits="userSpaceOnUse">
      <circle cx="2" cy="2" r="1" fill="#E6C235" opacity="0.3"/>
      <circle cx="7" cy="7" r="0.8" fill="#E6C235" opacity="0.25"/>
    </pattern>
    <clipPath id="yellow-torn-edges">
      <path d="
        M1,3 Q5,0 9,2 Q13,4 17,1 Q21,3 25,2 Q29,0 33,3 Q37,1 41,4
        Q45,1 49,2 Q53,0 57,3 Q61,1 65,2 Q69,4 73,1 Q77,3 81,2
        Q85,0 89,3 Q93,1 97,2 Q101,4 105,1 Q109,3 113,2 Q117,0 121,3
        Q125,1 129,2 Q133,0 137,4 Q141,1 145,2 Q149,0 153,3 Q157,1 161,2
        Q165,4 169,1 Q173,3 177,2 Q181,0 185,3 Q189,1 193,2 Q197,4 200,2
        L200,38 Q197,36 193,39 Q189,37 185,38 Q181,40 177,37 Q173,39 169,38
        Q165,40 161,37 Q157,39 153,38 Q149,36 145,39 Q141,37 137,38
        Q133,40 129,37 Q125,39 121,38 Q117,36 113,39 Q109,37 105,38
        Q101,40 97,37 Q93,39 89,38 Q85,36 81,39 Q77,37 73,38
        Q69,40 65,37 Q61,39 57,38 Q53,36 49,39 Q45,37 41,38
        Q37,40 33,37 Q29,39 25,38 Q21,36 17,39 Q13,37 9,38 Q5,40 1,38 Z
      "/>
    </clipPath>
  </defs>
  <g clip-path="url(#yellow-torn-edges)">
    <rect x="0" y="0" width="200" height="40" fill="#FFD93D" opacity="0.75"/>
    <rect x="0" y="14" width="200" height="12" fill="#FFD93D" opacity="0.12"/>
    <!-- Pattern overlay -->
    <rect x="0" y="0" width="200" height="40" fill="url(#yellow-pattern)"/>
    <!-- Sheen -->
    <rect x="0" y="7" width="200" height="3" fill="white" opacity="0.2"/>
  </g>
</svg>