<svg xmlns="http://www.w3.org/2000/svg" viewBox="0 0 64 64" fill="none">
  <!-- Left top wing -->
  <path d="M32 32C32 32 10 8 8 24C6 36 28 36 32 32Z" fill="#E8A0BF"/>
  <!-- Left bottom wing -->
  <path d="M32 32C32 32 8 40 12 52C16 60 30 44 32 32Z" fill="#E8DFF5"/>
  <!-- Right top wing -->
  <path d="M32 32C32 32 54 8 56 24C58 36 36 36 32 32Z" fill="#E8A0BF"/>
  <!-- Right bottom wing -->
  <path d="M32 32C32 32 56 40 52 52C48 60 34 44 32 32Z" fill="#E8DFF5"/>
  <!-- Wing details -->
  <circle cx="18" cy="24" r="4" fill="#E8DFF5" opacity="0.5"/>
  <circle cx="46" cy="24" r="4" fill="#E8DFF5" opacity="0.5"/>
  <circle cx="18" cy="44" r="3" fill="#E8A0BF" opacity="0.4"/>
  <circle cx="46" cy="44" r="3" fill="#E8A0BF" opacity="0.4"/>
  <!-- Body -->
  <ellipse cx="32" cy="32" rx="2.5" ry="12" fill="#E8A0BF"/>
  <!-- Antennae -->
  <path d="M31 20C31 20 26 10 24 8" stroke="#E8A0BF" stroke-width="1.5" stroke-linecap="round" fill="none"/>
  <path d="M33 20C33 20 38 10 40 8" stroke="#E8A0BF" stroke-width="1.5" stroke-linecap="round" fill="none"/>
  <circle cx="24" cy="8" r="2" fill="#E8A0BF"/>
  <circle cx="40" cy="8" r="2" fill="#E8A0BF"/>
</svg>
