<svg xmlns="http://www.w3.org/2000/svg" viewBox="0 0 64 64" fill="none">
  <!-- Stem -->
  <path d="M32 38V58" stroke="#D4E2D4" stroke-width="3" stroke-linecap="round"/>
  <!-- Leaves on stem -->
  <path d="M32 48C32 48 24 44 22 48C20 52 28 50 32 48Z" fill="#D4E2D4"/>
  <path d="M32 52C32 52 40 48 42 52C44 56 36 54 32 52Z" fill="#D4E2D4"/>
  <!-- Petals -->
  <ellipse cx="32" cy="16" rx="7" ry="10" fill="#E8A0BF"/>
  <ellipse cx="32" cy="16" rx="7" ry="10" fill="#E8A0BF" transform="rotate(60 32 28)"/>
  <ellipse cx="32" cy="16" rx="7" ry="10" fill="#E8A0BF" transform="rotate(120 32 28)"/>
  <ellipse cx="32" cy="16" rx="7" ry="10" fill="#E8A0BF" transform="rotate(180 32 28)"/>
  <ellipse cx="32" cy="16" rx="7" ry="10" fill="#E8A0BF" transform="rotate(240 32 28)"/>
  <ellipse cx="32" cy="16" rx="7" ry="10" fill="#E8A0BF" transform="rotate(300 32 28)"/>
  <!-- Center -->
  <circle cx="32" cy="28" r="6" fill="#FFD93D"/>
  <circle cx="32" cy="28" r="3.5" fill="#FFF8F0" opacity="0.5"/>
</svg>
