<svg xmlns="http://www.w3.org/2000/svg" viewBox="0 0 64 64" fill="none">
  <path d="M32 8C32 8 56 16 52 40C48 56 32 58 32 58C32 58 16 56 12 40C8 16 32 8 32 8Z" fill="#D4E2D4"/>
  <!-- Center vein -->
  <path d="M32 14V54" stroke="#a8c5a8" stroke-width="2" stroke-linecap="round"/>
  <!-- Side veins -->
  <path d="M32 22L22 28" stroke="#a8c5a8" stroke-width="1.5" stroke-linecap="round" opacity="0.6"/>
  <path d="M32 22L42 28" stroke="#a8c5a8" stroke-width="1.5" stroke-linecap="round" opacity="0.6"/>
  <path d="M32 32L20 36" stroke="#a8c5a8" stroke-width="1.5" stroke-linecap="round" opacity="0.6"/>
  <path d="M32 32L44 36" stroke="#a8c5a8" stroke-width="1.5" stroke-linecap="round" opacity="0.6"/>
  <path d="M32 42L24 44" stroke="#a8c5a8" stroke-width="1.5" stroke-linecap="round" opacity="0.6"/>
  <path d="M32 42L40 44" stroke="#a8c5a8" stroke-width="1.5" stroke-linecap="round" opacity="0.6"/>
  <!-- Highlight -->
  <path d="M28 12C28 12 20 20 18 32" stroke="white" stroke-width="2" stroke-linecap="round" opacity="0.3" fill="none"/>
</svg>
