<svg xmlns="http://www.w3.org/2000/svg" viewBox="0 0 64 64" fill="none">
  <!-- Frosting -->
  <path d="M14 32C14 32 16 18 32 18C48 18 50 32 50 32Z" fill="#E8A0BF"/>
  <path d="M14 32C14 32 18 28 22 30C26 32 28 28 32 30C36 32 38 28 42 30C46 32 50 28 50 32Z" fill="#FFE4E1"/>
  <!-- Cup -->
  <path d="M16 32L20 54H44L48 32Z" fill="#FFF8F0"/>
  <path d="M16 32L20 54H44L48 32Z" stroke="#FFD93D" stroke-width="1.5" fill="none"/>
  <!-- Cup lines -->
  <line x1="24" y1="32" x2="22" y2="54" stroke="#FFD93D" stroke-width="1" opacity="0.5"/>
  <line x1="32" y1="32" x2="32" y2="54" stroke="#FFD93D" stroke-width="1" opacity="0.5"/>
  <line x1="40" y1="32" x2="42" y2="54" stroke="#FFD93D" stroke-width="1" opacity="0.5"/>
  <!-- Cherry on top -->
  <circle cx="32" cy="16" r="4" fill="#FF6B6B"/>
  <circle cx="30.5" cy="14.5" r="1.5" fill="white" opacity="0.4"/>
  <path d="M32 12C32 12 34 8 36 8" stroke="#D4E2D4" stroke-width="1.5" stroke-linecap="round"/>
</svg>
