<svg xmlns="http://www.w3.org/2000/svg" viewBox="0 0 64 64" fill="none">
  <!-- Top facet -->
  <polygon points="14,24 32,8 50,24" fill="#E8DFF5"/>
  <!-- Main body -->
  <polygon points="14,24 32,58 50,24" fill="#E8DFF5"/>
  <!-- Left facet -->
  <polygon points="14,24 32,24 32,58" fill="#E8A0BF" opacity="0.3"/>
  <!-- Top left -->
  <polygon points="14,24 32,24 32,8" fill="#E8A0BF" opacity="0.2"/>
  <!-- Shine lines -->
  <line x1="22" y1="20" x2="26" y2="36" stroke="white" stroke-width="1.5" opacity="0.5"/>
  <line x1="26" y1="18" x2="28" y2="30" stroke="white" stroke-width="1" opacity="0.4"/>
  <!-- Sparkle -->
  <path d="M48 12L49 15L52 16L49 17L48 20L47 17L44 16L47 15Z" fill="#FFD93D" opacity="0.7"/>
  <path d="M12 14L13 16L15 17L13 18L12 20L11 18L9 17L11 16Z" fill="#FFD93D" opacity="0.5"/>
</svg>
