<svg xmlns="http://www.w3.org/2000/svg" viewBox="0 0 100 100" width="100" height="100">
  <g transform="translate(50,50)">
    <path d="M0,0 C-10,-20 -30,-25 -28,-10 C-26,0 -15,5 0,0Z" fill="#F2C4C4" stroke="#8B6914" stroke-width="1.2"/>
    <path d="M0,0 C10,-20 30,-25 28,-10 C26,0 15,5 0,0Z" fill="#F2C4C4" stroke="#8B6914" stroke-width="1.2"/>
    <path d="M0,0 C-8,10 -22,18 -18,12 C-14,6 -8,4 0,0Z" fill="#e8abab" stroke="#8B6914" stroke-width="1"/>
    <path d="M0,0 C8,10 22,18 18,12 C14,6 8,4 0,0Z" fill="#e8abab" stroke="#8B6914" stroke-width="1"/>
    <ellipse cx="0" cy="0" rx="1.5" ry="8" fill="#8B6914"/>
    <path d="M0,-8 C-5,-16 -3,-18 -1,-14" stroke="#8B6914" stroke-width="1" fill="none"/>
    <path d="M0,-8 C5,-16 3,-18 1,-14" stroke="#8B6914" stroke-width="1" fill="none"/>
    <circle cx="-18" cy="-12" r="3" fill="#F5E6CA" opacity="0.6"/>
    <circle cx="18" cy="-12" r="3" fill="#F5E6CA" opacity="0.6"/>
  </g>
</svg>
