<svg xmlns="http://www.w3.org/2000/svg" viewBox="0 0 100 100" width="100" height="100">
  <g transform="translate(50,50)">
    <polygon points="0,-30 8,-22 18,-28 18,-18 28,-14 22,-6 30,0 22,6 28,14 18,18 18,28 8,22 0,30 -8,22 -18,28 -18,18 -28,14 -22,6 -30,0 -22,-6 -28,-14 -18,-18 -18,-28 -8,-22" fill="#8B6914" stroke="#2C2C2C" stroke-width="0.5"/>
    <circle cx="0" cy="0" r="18" fill="#8B6914" stroke="#F5E6CA" stroke-width="1.5"/>
    <circle cx="0" cy="0" r="14" fill="none" stroke="#F5E6CA" stroke-width="0.8"/>
    <text x="0" y="2" text-anchor="middle" dominant-baseline="middle" font-family="serif" font-size="14" fill="#F5E6CA" font-weight="bold">S</text>
  </g>
</svg>
